# xmcd CD database file
#
# Track frame offsets:
#	150
#	11320
#	21361
#	28975
#	39785
#	53378
#	64465
#	73474
#	81270
#	93771
#	104771
#	114748
#	125289
#	134225
#	145443
#	158750
#	169845
#	183337
#	194399
#	207388
#	230261
#
# Disc length: 3218 seconds
#
# Revision: 1
# Processed by: cddbd v1.5.2PL0 Copyright (c) Steve Scherf et al.
# Submitted via: CDex 1.99.1
#
DISCID=320c9015
DTITLE=Pat Boone - CD2 - The EP Collection 1955-1961
DYEAR=2018
DGENRE=Country
TTITLE0=Technique
TTITLE1=Cathedral In The Pines
TTITLE2=Louella
TTITLE3=Without My Love
TTITLE4=White Christmas
TTITLE5=Silent Night
TTITLE6=Jingle Bells
TTITLE7=Santa Claus Is Coming To Town
TTITLE8=Flip, Flop And Fly
TTITLE9=Lover's Lane
TTITLE10=Long Tall Sally
TTITLE11=Good Rockin' Tonight
TTITLE12=A Wonderful Time Up There
TTITLE13=Chattanooga Shoe Shine Boy
TTITLE14=Harbor Lights
TTITLE15=Tutti Frutti
TTITLE16=I'll Be Home
TTITLE17=The Lord's Prayer
TTITLE18=I Believe
TTITLE19=Ave Maria
TTITLE20=He (Can Turn The Tide)
EXTD=YEAR: 2018
EXTT0=
EXTT1=
EXTT2=
EXTT3=
EXTT4=
EXTT5=
EXTT6=
EXTT7=
EXTT8=
EXTT9=
EXTT10=
EXTT11=
EXTT12=
EXTT13=
EXTT14=
EXTT15=
EXTT16=
EXTT17=
EXTT18=
EXTT19=
EXTT20=
PLAYORDER=
